<?xml version="1.0" encoding="utf-8"?>
<!-- Generator: Adobe Illustrator 16.0.4, SVG Export Plug-In . SVG Version: 6.00 Build 0)  -->
<!DOCTYPE svg PUBLIC "-//W3C//DTD SVG 1.1//EN" "http://www.w3.org/Graphics/SVG/1.1/DTD/svg11.dtd">
<svg version="1.1" id="Layer_1" xmlns="http://www.w3.org/2000/svg" xmlns:xlink="http://www.w3.org/1999/xlink" x="0px" y="0px"
	 width="457.667px" height="73.667px" viewBox="0 0 457.667 73.667" enable-background="new 0 0 457.667 73.667"
	 xml:space="preserve">
<g>
	<path fill="#FFFFFF" d="M13.718,11.712h12.813c12.098,0,20.457,8.304,20.457,19.138v0.11c0,10.833-8.359,19.248-20.457,19.248
		H13.718V11.712z M26.532,47.567c10.723,0,17.487-7.314,17.487-16.498v-0.11c0-9.128-6.764-16.608-17.487-16.608h-9.954v33.216
		H26.532z"/>
	<path fill="#FFFFFF" d="M61.456,11.437h2.75l17.927,38.77h-3.134l-4.895-10.778H51.393l-4.895,10.778h-2.97L61.456,11.437z
		 M72.895,36.844L62.776,14.572L52.603,36.844H72.895z"/>
	<path fill="#FFFFFF" d="M83.678,11.712h2.695l26.561,33.491V11.712h2.75v38.495h-2.145L86.427,16.001v34.206h-2.75V11.712z"/>
	<path fill="#FFFFFF" d="M136.255,11.437h2.75l17.928,38.77h-3.135l-4.894-10.778h-22.712l-4.895,10.778h-2.969L136.255,11.437z
		 M147.693,36.844l-10.118-22.272l-10.173,22.272H147.693z"/>
	<path fill="#FFFFFF" d="M158.477,11.712h15.014c12.098,0,20.457,8.304,20.457,19.138v0.11c0,10.833-8.359,19.248-20.457,19.248
		h-15.014V11.712z M173.49,42.563c6.929,0,11.604-4.674,11.604-11.494v-0.11c0-6.819-4.675-11.604-11.604-11.604h-6.545v23.207
		H173.49z"/>
	<path fill="#FFFFFF" d="M197.086,11.712h29.036v7.534H205.5v7.809h18.147v7.534H205.5v8.084h20.897v7.534h-29.312V11.712z"/>
	<path fill="#FFFFFF" d="M229.536,11.712h8.469v30.796h19.192v7.699h-27.661V11.712z"/>
	<path fill="#FFFFFF" d="M274.578,11.437h7.81l16.497,38.77h-8.854l-3.52-8.634h-16.277l-3.52,8.634h-8.635L274.578,11.437z
		 M283.487,34.094l-5.114-12.483l-5.114,12.483H283.487z"/>
	<path fill="#FFFFFF" d="M301.529,11.712h7.81l18.037,23.702V11.712h8.359v38.495h-7.204l-18.643-24.472v24.472h-8.359V11.712z"/>
	<path fill="#FFFFFF" d="M338.874,31.069v-0.11c0-10.943,8.248-19.907,20.072-19.907c7.259,0,11.604,2.419,15.178,5.939l-5.39,6.214
		c-2.97-2.695-5.994-4.344-9.844-4.344c-6.489,0-11.163,5.389-11.163,11.988v0.11c0,6.599,4.564,12.099,11.163,12.099
		c4.399,0,7.095-1.76,10.119-4.509l5.389,5.444c-3.959,4.235-8.358,6.875-15.782,6.875
		C347.287,50.867,338.874,42.123,338.874,31.069z"/>
	<path fill="#FFFFFF" d="M377.868,11.712h29.036v7.534h-20.622v7.809h18.147v7.534h-18.147v8.084h20.897v7.534h-29.312V11.712z"/>
	<path fill="#FFFFFF" d="M426.651,35.029l-14.793-23.317h9.898l9.184,15.453l9.349-15.453h9.624L435.12,34.864v15.343h-8.469V35.029
		z"/>
</g>
</svg>
